<?xml version="1.0" encoding="UTF-8"?>
<svg width="24" height="25" version="1.1" viewBox="0 0 6.35 6.6146" xmlns="http://www.w3.org/2000/svg">
 <path transform="scale(.26458)" d="m2 0c-1.108-2.9606e-16 -2 0.892-2 2v20c-2.9606e-16 1.108 0.892 2 2 2h20c1.108 0 2-0.892 2-2v-20c0-1.108-0.892-2-2-2h-20zm0 0.99609h19.998c0.571-4e-8 1.0039 0.43291 1.0039 1.0039v19.998c0 0.571-0.4329 1.0039-1.0039 1.0039h-19.998c-0.571 0-1.0039-0.4329-1.0039-1.0039v-19.998c0-0.571 0.43291-1.0039 1.0039-1.0039z" opacity=".35"/>
</svg>
