<?xml version="1.0" encoding="UTF-8"?>
<svg width="48" height="48" version="1.1" viewBox="0 0 12.7 12.7" xmlns="http://www.w3.org/2000/svg" xmlns:cc="http://creativecommons.org/ns#" xmlns:dc="http://purl.org/dc/elements/1.1/" xmlns:rdf="http://www.w3.org/1999/02/22-rdf-syntax-ns#">
 <defs>
  <filter id="a" x="-.15552" y="-.15552" width="1.311" height="1.311" color-interpolation-filters="sRGB">
   <feGaussianBlur stdDeviation="0.54863997"/>
  </filter>
 </defs>
 <metadata>
  <rdf:RDF>
   <cc:Work rdf:about="">
    <dc:format>image/svg+xml</dc:format>
    <dc:type rdf:resource="http://purl.org/dc/dcmitype/StillImage"/>
    <dc:title/>
   </cc:Work>
  </rdf:RDF>
 </metadata>
 <g transform="translate(0 -269.48)">
  <circle cx="6.35" cy="276.33" r="4.2333" filter="url(#a)" opacity=".55" stroke="#000" stroke-width=".26458"/>
  <circle cx="6.35" cy="275.83" r="4.2333" fill="#832e2e"/>
  <path d="m6.3496 271.87c-1.0389 2.3e-4 -2.0722 0.4273-2.8066 1.1621-0.73448 0.73482-1.1604 1.7677-1.1602 2.8066 2.216e-4 1.0386 0.42768 2.0703 1.1621 2.8047 0.73443 0.73444 1.766 1.1619 2.8047 1.1621 1.039 2.6e-4 2.0718-0.42567 2.8066-1.1602 0.73482-0.73448 1.1619-1.7677 1.1621-2.8066 2.55e-4 -1.0392-0.42724-2.0718-1.1621-2.8066-0.73486-0.73486-1.7674-1.1624-2.8066-1.1621z" fill="#dc5050"/>
  <path d="m4.9355 273.44a0.27887 0.27887 0 0 0-0.19336 0.082l-0.70703 0.70508a0.27887 0.27887 0 0 0 0 0.39453l1.2148 1.2149-1.2148 1.2129a0.27887 0.27887 0 0 0 0 0.39453l0.70703 0.70507a0.27887 0.27887 0 0 0 0.39453 0l1.2129-1.2129 1.2148 1.2129a0.27887 0.27887 0 0 0 0.39453 0l0.70508-0.70507a0.27887 0.27887 0 0 0 0-0.39453l-1.2148-1.2129 1.2148-1.2148a0.27887 0.27887 0 0 0 0-0.39453l-0.70508-0.70508a0.27887 0.27887 0 0 0-0.39453 0l-1.2148 1.2129-1.2129-1.2129a0.27887 0.27887 0 0 0-0.20117-0.082z" fill-opacity=".97179" opacity=".21" stroke-width=".4989"/>
  <path d="m4.2333 274.42 1.4111 1.4112-1.4111 1.411 0.70555 0.70556 1.4111-1.4111 1.4111 1.4111 0.70555-0.70556-1.4111-1.411 1.4111-1.4112-0.70555-0.70555-1.4111 1.4112-1.4111-1.4112z" fill="#f3f3f3" fill-opacity=".97179" stroke-width=".4989"/>
 </g>
</svg>
