<?xml version="1.0" encoding="UTF-8"?>
<svg width="104" height="104" version="1.1" viewBox="0 0 27.517 27.517" xmlns="http://www.w3.org/2000/svg" xmlns:cc="http://creativecommons.org/ns#" xmlns:dc="http://purl.org/dc/elements/1.1/" xmlns:rdf="http://www.w3.org/1999/02/22-rdf-syntax-ns#">
 <metadata>
  <rdf:RDF>
   <cc:Work rdf:about="">
    <dc:format>image/svg+xml</dc:format>
    <dc:type rdf:resource="http://purl.org/dc/dcmitype/StillImage"/>
    <dc:title/>
   </cc:Work>
  </rdf:RDF>
 </metadata>
 <g transform="translate(0 -269.48)" fill="#767676">
  <path transform="matrix(.26458 0 0 .26458 0 269.48)" d="m52 1a51 51 0 0 0-51 51 51 51 0 0 0 51 51 51 51 0 0 0 51-51 51 51 0 0 0-51-51zm0 4a47 47 0 0 1 47 47 47 47 0 0 1-47 47 47 47 0 0 1-47-47 47 47 0 0 1 47-47z" stroke-width=".49038"/>
  <circle cx="13.758" cy="283.24" r="12.435" fill-opacity=".5098" stroke-width=".11957"/>
 </g>
</svg>
