<?xml version="1.0" encoding="UTF-8"?>
<svg width="60" height="60" version="1.1" viewBox="0 0 15.875 15.875" xmlns="http://www.w3.org/2000/svg" xmlns:cc="http://creativecommons.org/ns#" xmlns:dc="http://purl.org/dc/elements/1.1/" xmlns:rdf="http://www.w3.org/1999/02/22-rdf-syntax-ns#">
 <defs>
  <filter id="a" x="-.061851" y="-.09525" width="1.1237" height="1.1905" color-interpolation-filters="sRGB">
   <feGaussianBlur stdDeviation="0.52503256"/>
  </filter>
 </defs>
 <metadata>
  <rdf:RDF>
   <cc:Work rdf:about="">
    <dc:format>image/svg+xml</dc:format>
    <dc:type rdf:resource="http://purl.org/dc/dcmitype/StillImage"/>
    <dc:title/>
   </cc:Work>
  </rdf:RDF>
 </metadata>
 <g>
  <rect x="13.679" y="1.3229" width="20.373" height="13.229" ry="1.3229" fill="#020202" filter="url(#a)" opacity=".6" stroke="#000" stroke-width=".26458"/>
  <rect x="13.679" y="1.3229" width="20.373" height="13.229" ry="1.3229" fill="#2a2a2a" stroke-width=".26458"/>
  <path transform="translate(12.356)" d="m2.6465 1.5879c-0.59023 0-1.0586 0.46836-1.0586 1.0586v10.582c0 0.59023 0.46836 1.0586 1.0586 1.0586h17.727c0.59023 0 1.0566-0.46789 1.0566-1.0586v-10.582c0-0.5907-0.46641-1.0586-1.0566-1.0586z" fill="#484848" stroke-width=".26458"/>
  <path d="m19.5 4.2333v3.175l-3.175 0.0024v1.5851l3.175-0.0024v3.1774h1.5875v-3.1774l3.175 0.0024v-1.5851l-3.175-0.0024v-3.175z" fill="#666" opacity=".4" stroke-width=".79375"/>
  <path d="m19.5 3.9687v3.175l-3.175 0.0024v1.5851l3.175-0.0024v3.1774h1.5875v-3.1774l3.175 0.0024v-1.5851l-3.175-0.0024v-3.175z" fill="#2b2b2b"/>
  <g transform="translate(12.356)" fill="#1a1a1a">
   <rect x="3.9688" y="7.1437" width="3.175" height=".26458" opacity=".6"/>
   <rect x="7.1438" y="3.9688" width="1.5875" height=".26458" opacity=".6"/>
   <rect x="8.7312" y="7.1438" width="3.175" height=".26458" opacity=".6"/>
  </g>
 </g>
</svg>
